<svg xmlns="http://www.w3.org/2000/svg" viewBox="0 0 180 180" width="180" height="180">
  <defs>
    <linearGradient id="mainGrad" x1="0%" y1="0%" x2="100%" y2="100%">
      <stop offset="0%" style="stop-color:#10b981;stop-opacity:1" />
      <stop offset="50%" style="stop-color:#059669;stop-opacity:1" />
      <stop offset="100%" style="stop-color:#3b82f6;stop-opacity:1" />
    </linearGradient>
    <linearGradient id="accentGrad" x1="0%" y1="0%" x2="100%" y2="100%">
      <stop offset="0%" style="stop-color:#f59e0b;stop-opacity:1" />
      <stop offset="100%" style="stop-color:#d97706;stop-opacity:1" />
    </linearGradient>
    <filter id="shadow" x="-50%" y="-50%" width="200%" height="200%">
      <feDropShadow dx="2" dy="2" stdDeviation="3" flood-color="#000000" flood-opacity="0.3"/>
    </filter>
  </defs>
  
  <!-- Background with rounded corners -->
  <rect x="10" y="10" width="160" height="160" rx="32" ry="32" fill="url(#mainGrad)" filter="url(#shadow)"/>
  
  <!-- Main Shahin logo - stylized S -->
  <path d="M60 45 Q40 45 40 65 Q40 75 50 75 L130 75 Q140 75 140 85 Q140 105 120 105 L60 105 Q50 105 50 115 Q50 125 60 125 L120 125 Q140 125 140 105 Q140 95 130 95 L50 95 Q40 95 40 85 Q40 65 60 65 L120 65 Q130 65 130 55 Q130 45 120 45 Z" 
        fill="#ffffff" 
        opacity="0.95"
        filter="url(#shadow)"/>
  
  <!-- AI neural network pattern -->
  <g opacity="0.8">
    <!-- Nodes -->
    <circle cx="45" cy="135" r="4" fill="#ffffff"/>
    <circle cx="75" cy="145" r="3" fill="#ffffff"/>
    <circle cx="105" cy="135" r="4" fill="#ffffff"/>
    <circle cx="135" cy="145" r="3" fill="#ffffff"/>
    <circle cx="90" cy="155" r="2.5" fill="url(#accentGrad)"/>
    
    <!-- Connections -->
    <line x1="45" y1="135" x2="75" y2="145" stroke="#ffffff" stroke-width="1.5" opacity="0.6"/>
    <line x1="75" y1="145" x2="105" y2="135" stroke="#ffffff" stroke-width="1.5" opacity="0.6"/>
    <line x1="105" y1="135" x2="135" y2="145" stroke="#ffffff" stroke-width="1.5" opacity="0.6"/>
    <line x1="75" y1="145" x2="90" y2="155" stroke="url(#accentGrad)" stroke-width="2" opacity="0.8"/>
    <line x1="105" y1="135" x2="90" y2="155" stroke="url(#accentGrad)" stroke-width="2" opacity="0.8"/>
  </g>
  
  <!-- Analytics chart elements -->
  <g opacity="0.7">
    <rect x="125" y="35" width="3" height="15" fill="#ffffff" rx="1.5"/>
    <rect x="130" y="30" width="3" height="20" fill="#ffffff" rx="1.5"/>
    <rect x="135" y="25" width="3" height="25" fill="url(#accentGrad)" rx="1.5"/>
    <rect x="140" y="20" width="3" height="30" fill="#ffffff" rx="1.5"/>
    <rect x="145" y="28" width="3" height="22" fill="#ffffff" rx="1.5"/>
  </g>
  
  <!-- Decorative elements -->
  <circle cx="150" cy="60" r="2" fill="#ffffff" opacity="0.6"/>
  <circle cx="155" cy="70" r="1.5" fill="url(#accentGrad)" opacity="0.8"/>
  <circle cx="30" cy="50" r="1.5" fill="#ffffff" opacity="0.5"/>
  <circle cx="25" cy="60" r="1" fill="url(#accentGrad)" opacity="0.7"/>
</svg>