<svg xmlns="http://www.w3.org/2000/svg" viewBox="0 0 32 32" width="32" height="32">
  <defs>
    <linearGradient id="grad1" x1="0%" y1="0%" x2="100%" y2="100%">
      <stop offset="0%" style="stop-color:#10b981;stop-opacity:1" />
      <stop offset="100%" style="stop-color:#3b82f6;stop-opacity:1" />
    </linearGradient>
  </defs>
  
  <!-- Background circle -->
  <circle cx="16" cy="16" r="15" fill="url(#grad1)" stroke="#ffffff" stroke-width="1"/>
  
  <!-- Letter S stylized -->
  <path d="M12 8 Q8 8 8 12 Q8 14 10 14 L22 14 Q24 14 24 16 Q24 20 20 20 L12 20 Q10 20 10 22 Q10 24 12 24 L20 24 Q24 24 24 20 Q24 18 22 18 L10 18 Q8 18 8 16 Q8 12 12 12 L20 12 Q22 12 22 10 Q22 8 20 8 Z" 
        fill="#ffffff" 
        opacity="0.9"/>
  
  <!-- AI circuit pattern -->
  <circle cx="22" cy="10" r="1.5" fill="#ffffff" opacity="0.7"/>
  <circle cx="26" cy="14" r="1" fill="#ffffff" opacity="0.5"/>
  <circle cx="10" cy="26" r="1" fill="#ffffff" opacity="0.5"/>
  <line x1="22" y1="10" x2="26" y2="14" stroke="#ffffff" stroke-width="0.5" opacity="0.4"/>
</svg>